<svg width="77" height="33" viewBox="0 0 77 33" fill="none" xmlns="http://www.w3.org/2000/svg">
<path d="M10.3246 14.61C15.5086 14.61 17.8576 17.958 17.8576 21.576C17.8576 26.463 13.9696 30.27 9.0016 30.27C6.9226 30.27 5.9506 29.028 6.4096 26.895L8.0296 19.254C8.1916 18.444 7.8676 17.904 7.1926 17.904L7.1656 17.769C7.6786 17.418 8.4616 17.175 9.1366 17.175C10.7026 17.175 11.3236 18.147 10.9186 20.037L9.0286 28.839C8.9746 29.055 9.0826 29.163 9.2986 29.163C12.0256 29.163 14.6176 25.329 14.6176 21.279C14.6176 17.85 12.7816 15.717 9.8116 15.717C7.0846 15.717 4.9786 17.391 4.9786 19.578C4.9786 20.604 5.5996 21.306 6.5176 21.306C6.7066 21.306 6.9226 21.279 7.1386 21.225C7.1386 22.521 6.0586 23.493 4.6276 23.493C3.1156 23.493 2.1166 22.413 2.1166 20.766C2.1166 17.283 5.6806 14.61 10.3246 14.61ZM23.7799 20.145C25.3729 20.145 26.2909 20.955 26.2909 22.197C26.2909 24.141 24.4009 25.707 21.4039 26.355C21.4579 27.921 22.2409 28.758 23.5909 28.758C24.9409 28.758 26.2369 27.732 27.1279 25.977C27.3439 25.572 27.9919 25.842 27.8029 26.301C26.8579 28.65 24.8599 30.135 22.5919 30.135C20.0809 30.135 18.4339 28.434 18.4339 25.815C18.4339 22.656 20.7829 20.145 23.7799 20.145ZM21.4309 25.464C23.2129 24.762 24.4279 23.331 24.4279 21.846C24.4279 21.468 24.2389 21.225 23.8879 21.225C22.7539 21.225 21.6199 23.25 21.4309 25.464ZM32.0786 21.144C32.1056 20.523 32.7266 20.01 33.5096 20.01C34.6436 20.01 35.2916 20.847 35.2916 22.332C35.2916 26.085 32.2406 30.135 29.4056 30.135C27.5696 30.135 26.5976 28.434 27.0836 26.112L28.0016 21.792C28.1366 21.117 27.9476 20.739 27.4616 20.739L27.4346 20.604C28.0286 20.307 28.6496 20.145 29.1896 20.145C30.4046 20.145 30.9446 20.847 30.6746 22.17L29.6756 26.868C29.4596 27.921 29.7566 28.569 30.4316 28.569C31.8896 28.569 33.3476 25.923 33.3476 23.331C33.3476 22.143 32.9156 21.36 32.0786 21.144ZM44.8812 15.69C42.2622 15.69 39.9132 19.389 39.9132 23.52C39.9132 26.76 41.4522 28.758 43.9902 28.758C45.8802 28.758 47.8782 27.408 49.0392 25.356C49.2822 24.951 49.9302 25.221 49.7142 25.707C48.5532 28.461 45.7992 30.27 42.8022 30.27C39.1032 30.27 36.6462 27.597 36.6462 23.628C36.6462 18.633 40.2642 14.61 44.7462 14.61C47.2842 14.61 48.9582 15.933 48.9582 17.904C48.9582 19.686 47.8242 20.955 46.2582 20.955C44.9892 20.955 44.1792 20.091 44.3682 18.957C45.5562 19.119 46.5012 18.39 46.5012 17.283C46.5012 16.338 45.8262 15.69 44.8812 15.69ZM53.1257 30.135C50.6147 30.135 48.9407 28.434 48.9407 25.815C48.9407 22.656 51.2897 20.145 54.2867 20.145C56.7977 20.145 58.4717 21.846 58.4717 24.465C58.4717 27.624 56.1227 30.135 53.1257 30.135ZM53.0177 29.055C54.2867 29.055 55.5557 26.328 55.5557 23.574C55.5557 22.062 55.1507 21.225 54.3947 21.225C53.1257 21.225 51.8567 23.952 51.8567 26.706C51.8567 28.218 52.2617 29.055 53.0177 29.055ZM62.8099 23.439L61.7299 28.461C61.5949 29.163 61.7569 29.541 62.2429 29.541L62.2699 29.676C61.6759 29.973 61.0549 30.135 60.5149 30.135C59.2999 30.135 58.7599 29.433 59.0299 28.137L60.3799 21.792C60.5149 21.117 60.3259 20.739 59.8669 20.739L59.8399 20.604C60.4339 20.307 61.0549 20.145 61.5949 20.145C62.5669 20.145 63.0799 20.577 63.1339 21.387C63.8899 20.55 64.7809 20.145 65.8069 20.145C67.3999 20.145 68.2639 21.333 67.8859 23.088L66.9949 27.273C66.8329 28.029 67.0489 28.515 67.5619 28.515C68.3179 28.515 69.0199 27.651 69.5599 26.112C69.7219 25.68 70.3969 25.815 70.2889 26.301C69.4249 29.001 68.3179 30.135 66.4819 30.135C64.7269 30.135 63.8899 28.893 64.3219 26.895L65.1319 23.088C65.3209 22.224 65.0509 21.684 64.4299 21.684C63.7279 21.684 63.1069 22.386 62.8099 23.439Z" fill="black"/>
</svg>
