<svg width="254" height="85" viewBox="0 0 254 85" fill="none" xmlns="http://www.w3.org/2000/svg">
<path d="M24.384 33.52C36.672 33.52 42.24 41.456 42.24 50.032C42.24 61.616 33.024 70.64 21.248 70.64C16.32 70.64 14.016 67.696 15.104 62.64L18.944 44.528C19.328 42.608 18.56 41.328 16.96 41.328L16.896 41.008C18.112 40.176 19.968 39.6 21.568 39.6C25.28 39.6 26.752 41.904 25.792 46.384L21.312 67.248C21.184 67.76 21.44 68.016 21.952 68.016C28.416 68.016 34.56 58.928 34.56 49.328C34.56 41.2 30.208 36.144 23.168 36.144C16.704 36.144 11.712 40.112 11.712 45.296C11.712 47.728 13.184 49.392 15.36 49.392C15.808 49.392 16.32 49.328 16.832 49.2C16.832 52.272 14.272 54.576 10.88 54.576C7.296 54.576 4.928 52.016 4.928 48.112C4.928 39.856 13.376 33.52 24.384 33.52ZM56.278 46.64C60.054 46.64 62.23 48.56 62.23 51.504C62.23 56.112 57.75 59.824 50.646 61.36C50.774 65.072 52.63 67.056 55.83 67.056C59.03 67.056 62.102 64.624 64.214 60.464C64.726 59.504 66.262 60.144 65.814 61.232C63.574 66.8 58.838 70.32 53.462 70.32C47.51 70.32 43.606 66.288 43.606 60.08C43.606 52.592 49.174 46.64 56.278 46.64ZM50.71 59.248C54.934 57.584 57.814 54.192 57.814 50.672C57.814 49.776 57.366 49.2 56.534 49.2C53.846 49.2 51.158 54 50.71 59.248ZM75.949 49.008C76.013 47.536 77.485 46.32 79.341 46.32C82.029 46.32 83.565 48.304 83.565 51.824C83.565 60.72 76.333 70.32 69.613 70.32C65.261 70.32 62.957 66.288 64.109 60.784L66.285 50.544C66.605 48.944 66.157 48.048 65.005 48.048L64.941 47.728C66.349 47.024 67.821 46.64 69.101 46.64C71.981 46.64 73.261 48.304 72.621 51.44L70.253 62.576C69.741 65.072 70.445 66.608 72.045 66.608C75.501 66.608 78.957 60.336 78.957 54.192C78.957 51.376 77.933 49.52 75.949 49.008ZM106.296 36.08C100.088 36.08 94.52 44.848 94.52 54.64C94.52 62.32 98.168 67.056 104.184 67.056C108.664 67.056 113.4 63.856 116.152 58.992C116.728 58.032 118.264 58.672 117.752 59.824C115 66.352 108.472 70.64 101.368 70.64C92.6 70.64 86.776 64.304 86.776 54.896C86.776 43.056 95.352 33.52 105.976 33.52C111.992 33.52 115.96 36.656 115.96 41.328C115.96 45.552 113.272 48.56 109.56 48.56C106.552 48.56 104.632 46.512 105.08 43.824C107.896 44.208 110.136 42.48 110.136 39.856C110.136 37.616 108.536 36.08 106.296 36.08ZM125.839 70.32C119.887 70.32 115.919 66.288 115.919 60.08C115.919 52.592 121.487 46.64 128.591 46.64C134.543 46.64 138.511 50.672 138.511 56.88C138.511 64.368 132.943 70.32 125.839 70.32ZM125.583 67.76C128.591 67.76 131.599 61.296 131.599 54.768C131.599 51.184 130.639 49.2 128.847 49.2C125.839 49.2 122.831 55.664 122.831 62.192C122.831 65.776 123.791 67.76 125.583 67.76ZM148.794 54.448L146.234 66.352C145.914 68.016 146.298 68.912 147.45 68.912L147.514 69.232C146.106 69.936 144.634 70.32 143.354 70.32C140.474 70.32 139.194 68.656 139.834 65.584L143.034 50.544C143.354 48.944 142.906 48.048 141.818 48.048L141.754 47.728C143.161 47.024 144.634 46.64 145.914 46.64C148.218 46.64 149.434 47.664 149.562 49.584C151.354 47.6 153.466 46.64 155.898 46.64C159.674 46.64 161.722 49.456 160.826 53.616L158.714 63.536C158.33 65.328 158.842 66.48 160.058 66.48C161.85 66.48 163.514 64.432 164.794 60.784C165.178 59.76 166.778 60.08 166.522 61.232C164.474 67.632 161.85 70.32 157.498 70.32C153.338 70.32 151.354 67.376 152.378 62.64L154.298 53.616C154.746 51.568 154.106 50.288 152.634 50.288C150.97 50.288 149.498 51.952 148.794 54.448ZM172.606 54.448L170.046 66.352C169.726 68.016 170.11 68.912 171.262 68.912L171.326 69.232C169.918 69.936 168.446 70.32 167.166 70.32C164.286 70.32 163.006 68.656 163.646 65.584L166.846 50.544C167.166 48.944 166.718 48.048 165.63 48.048L165.566 47.728C166.974 47.024 168.446 46.64 169.726 46.64C172.03 46.64 173.246 47.664 173.374 49.584C175.166 47.6 177.278 46.64 179.71 46.64C183.486 46.64 185.534 49.456 184.638 53.616L182.526 63.536C182.142 65.328 182.654 66.48 183.87 66.48C185.662 66.48 187.326 64.432 188.606 60.784C188.99 59.76 190.59 60.08 190.334 61.232C188.286 67.632 185.662 70.32 181.31 70.32C177.15 70.32 175.166 67.376 176.19 62.64L178.11 53.616C178.558 51.568 177.918 50.288 176.446 50.288C174.782 50.288 173.31 51.952 172.606 54.448ZM201.091 46.64C204.867 46.64 207.043 48.56 207.043 51.504C207.043 56.112 202.562 59.824 195.459 61.36C195.587 65.072 197.443 67.056 200.643 67.056C203.843 67.056 206.915 64.624 209.027 60.464C209.539 59.504 211.075 60.144 210.627 61.232C208.387 66.8 203.651 70.32 198.275 70.32C192.323 70.32 188.419 66.288 188.419 60.08C188.419 52.592 193.987 46.64 201.091 46.64ZM195.523 59.248C199.747 57.584 202.627 54.192 202.627 50.672C202.627 49.776 202.179 49.2 201.347 49.2C198.659 49.2 195.97 54 195.523 59.248ZM215.834 60.848C215.834 64.88 217.69 67.056 221.018 67.056C224.218 67.056 227.29 64.624 229.402 60.464C229.914 59.504 231.45 60.144 231.002 61.232C228.762 66.8 224.026 70.32 218.65 70.32C212.698 70.32 208.794 66.288 208.794 60.08C208.794 52.592 214.362 46.64 221.466 46.64C225.242 46.64 227.738 48.688 227.738 51.952C227.738 55.216 225.818 57.584 223.066 57.584C220.57 57.584 219.098 55.6 219.866 53.168C221.85 53.616 223.45 52.528 223.45 50.8C223.45 49.84 222.874 49.2 221.978 49.2C218.714 49.2 215.834 54.384 215.834 60.848ZM230.129 48.88L230.385 47.856C230.513 47.28 230.961 46.96 231.536 46.96H232.177L232.753 44.144C232.881 43.568 233.201 43.312 233.777 43.184C237.233 42.544 238.897 41.776 239.793 40.432H240.113L238.705 46.96H241.329L241.073 47.984C240.945 48.56 240.497 48.88 239.921 48.88H238.321L235.185 63.536C234.801 65.328 235.312 66.48 236.529 66.48C238.321 66.48 239.985 64.432 241.265 60.784C241.649 59.76 243.249 60.08 242.993 61.232C240.945 67.632 238.321 70.32 233.969 70.32C229.809 70.32 227.825 67.376 228.849 62.64L231.729 48.88H230.129Z" fill="black"/>
</svg>
