<svg width="365" height="154" viewBox="0 0 365 154" fill="none" xmlns="http://www.w3.org/2000/svg">
<path d="M36.576 51.28C55.008 51.28 63.36 63.184 63.36 76.048C63.36 93.424 49.536 106.96 31.872 106.96C24.48 106.96 21.024 102.544 22.656 94.96L28.416 67.792C28.992 64.912 27.84 62.992 25.44 62.992L25.344 62.512C27.168 61.264 29.952 60.4 32.352 60.4C37.92 60.4 40.128 63.856 38.688 70.576L31.968 101.872C31.776 102.64 32.16 103.024 32.928 103.024C42.624 103.024 51.84 89.392 51.84 74.992C51.84 62.8 45.312 55.216 34.752 55.216C25.056 55.216 17.568 61.168 17.568 68.944C17.568 72.592 19.776 75.088 23.04 75.088C23.712 75.088 24.48 74.992 25.248 74.8C25.248 79.408 21.408 82.864 16.32 82.864C10.944 82.864 7.392 79.024 7.392 73.168C7.392 60.784 20.064 51.28 36.576 51.28ZM84.417 70.96C90.081 70.96 93.345 73.84 93.345 78.256C93.345 85.168 86.625 90.736 75.969 93.04C76.161 98.608 78.945 101.584 83.745 101.584C88.545 101.584 93.153 97.936 96.321 91.696C97.089 90.256 99.393 91.216 98.721 92.848C95.361 101.2 88.257 106.48 80.193 106.48C71.265 106.48 65.409 100.432 65.409 91.12C65.409 79.888 73.761 70.96 84.417 70.96ZM76.065 89.872C82.401 87.376 86.721 82.288 86.721 77.008C86.721 75.664 86.049 74.8 84.801 74.8C80.769 74.8 76.737 82 76.065 89.872ZM113.924 74.512C114.02 72.304 116.228 70.48 119.012 70.48C123.044 70.48 125.348 73.456 125.348 78.736C125.348 92.08 114.5 106.48 104.42 106.48C97.8915 106.48 94.4355 100.432 96.1635 92.176L99.4275 76.816C99.9075 74.416 99.2355 73.072 97.5075 73.072L97.4115 72.592C99.5235 71.536 101.732 70.96 103.652 70.96C107.972 70.96 109.892 73.456 108.932 78.16L105.38 94.864C104.612 98.608 105.668 100.912 108.068 100.912C113.252 100.912 118.436 91.504 118.436 82.288C118.436 78.064 116.9 75.28 113.924 74.512ZM159.444 55.12C150.132 55.12 141.78 68.272 141.78 82.96C141.78 94.48 147.252 101.584 156.276 101.584C162.996 101.584 170.1 96.784 174.228 89.488C175.092 88.048 177.396 89.008 176.628 90.736C172.5 100.528 162.708 106.96 152.052 106.96C138.9 106.96 130.164 97.456 130.164 83.344C130.164 65.584 143.028 51.28 158.964 51.28C167.988 51.28 173.94 55.984 173.94 62.992C173.94 69.328 169.908 73.84 164.34 73.84C159.828 73.84 156.948 70.768 157.62 66.736C161.844 67.312 165.204 64.72 165.204 60.784C165.204 57.424 162.804 55.12 159.444 55.12ZM188.758 106.48C179.83 106.48 173.878 100.432 173.878 91.12C173.878 79.888 182.23 70.96 192.886 70.96C201.814 70.96 207.766 77.008 207.766 86.32C207.766 97.552 199.414 106.48 188.758 106.48ZM188.374 102.64C192.886 102.64 197.398 92.944 197.398 83.152C197.398 77.776 195.958 74.8 193.27 74.8C188.758 74.8 184.246 84.496 184.246 94.288C184.246 99.664 185.686 102.64 188.374 102.64ZM223.19 82.672L219.35 100.528C218.87 103.024 219.446 104.368 221.174 104.368L221.27 104.848C219.158 105.904 216.95 106.48 215.03 106.48C210.71 106.48 208.79 103.984 209.75 99.376L214.55 76.816C215.03 74.416 214.358 73.072 212.726 73.072L212.63 72.592C214.742 71.536 216.95 70.96 218.87 70.96C222.326 70.96 224.15 72.496 224.342 75.376C227.03 72.4 230.198 70.96 233.846 70.96C239.51 70.96 242.582 75.184 241.238 81.424L238.07 96.304C237.494 98.992 238.262 100.72 240.086 100.72C242.774 100.72 245.27 97.648 247.19 92.176C247.766 90.64 250.166 91.12 249.782 92.848C246.71 102.448 242.774 106.48 236.246 106.48C230.006 106.48 227.03 102.064 228.566 94.96L231.446 81.424C232.118 78.352 231.158 76.432 228.95 76.432C226.454 76.432 224.246 78.928 223.19 82.672ZM258.909 82.672L255.069 100.528C254.589 103.024 255.165 104.368 256.893 104.368L256.989 104.848C254.877 105.904 252.669 106.48 250.749 106.48C246.429 106.48 244.509 103.984 245.469 99.376L250.269 76.816C250.749 74.416 250.077 73.072 248.445 73.072L248.349 72.592C250.461 71.536 252.669 70.96 254.589 70.96C258.045 70.96 259.869 72.496 260.061 75.376C262.749 72.4 265.917 70.96 269.565 70.96C275.229 70.96 278.301 75.184 276.957 81.424L273.789 96.304C273.213 98.992 273.981 100.72 275.805 100.72C278.493 100.72 280.989 97.648 282.909 92.176C283.485 90.64 285.885 91.12 285.501 92.848C282.429 102.448 278.493 106.48 271.965 106.48C265.725 106.48 262.749 102.064 264.285 94.96L267.165 81.424C267.837 78.352 266.877 76.432 264.669 76.432C262.173 76.432 259.965 78.928 258.909 82.672ZM301.636 70.96C307.3 70.96 310.564 73.84 310.564 78.256C310.564 85.168 303.844 90.736 293.188 93.04C293.38 98.608 296.164 101.584 300.964 101.584C305.764 101.584 310.372 97.936 313.54 91.696C314.308 90.256 316.612 91.216 315.94 92.848C312.58 101.2 305.476 106.48 297.412 106.48C288.484 106.48 282.628 100.432 282.628 91.12C282.628 79.888 290.98 70.96 301.636 70.96ZM293.284 89.872C299.62 87.376 303.94 82.288 303.94 77.008C303.94 75.664 303.268 74.8 302.02 74.8C297.988 74.8 293.956 82 293.284 89.872ZM323.75 92.272C323.75 98.32 326.534 101.584 331.526 101.584C336.326 101.584 340.934 97.936 344.102 91.696C344.87 90.256 347.174 91.216 346.502 92.848C343.142 101.2 336.038 106.48 327.974 106.48C319.046 106.48 313.19 100.432 313.19 91.12C313.19 79.888 321.542 70.96 332.198 70.96C337.862 70.96 341.606 74.032 341.606 78.928C341.606 83.824 338.726 87.376 334.598 87.376C330.854 87.376 328.646 84.4 329.798 80.752C332.774 81.424 335.174 79.792 335.174 77.2C335.174 75.76 334.31 74.8 332.966 74.8C328.07 74.8 323.75 82.576 323.75 92.272ZM345.193 74.32L345.577 72.784C345.769 71.92 346.441 71.44 347.305 71.44H348.265L349.129 67.216C349.321 66.352 349.801 65.968 350.665 65.776C355.849 64.816 358.345 63.664 359.689 61.648H360.169L358.057 71.44H361.993L361.609 72.976C361.417 73.84 360.745 74.32 359.881 74.32H357.481L352.777 96.304C352.201 98.992 352.969 100.72 354.793 100.72C357.481 100.72 359.977 97.648 361.897 92.176C362.473 90.64 364.873 91.12 364.489 92.848C361.417 102.448 357.481 106.48 350.953 106.48C344.713 106.48 341.737 102.064 343.273 94.96L347.593 74.32H345.193Z" fill="black"/>
</svg>
